<?xml version="1.0" encoding="UTF-8"?><svg id="Layer_1" xmlns="http://www.w3.org/2000/svg" viewBox="0 0 200 200"><defs><style>.cls-1{fill:#fafafa;}.cls-2{fill:#f1b9cc;}</style></defs><rect class="cls-1" x="152.38" y="66.67" width="9.52" height="9.52"/><rect class="cls-1" x="161.9" y="66.67" width="9.53" height="9.52"/><rect class="cls-1" x="152.38" y="76.19" width="9.52" height="9.52"/><rect class="cls-1" x="161.9" y="76.19" width="9.53" height="9.52"/><rect class="cls-1" x="142.85" y="76.19" width="9.53" height="9.52"/><rect class="cls-1" x="171.43" y="85.71" width="9.52" height="9.53"/><rect class="cls-1" x="161.9" y="85.71" width="9.53" height="9.53"/><rect class="cls-1" x="152.38" y="85.71" width="9.52" height="9.53"/><rect class="cls-1" x="142.85" y="85.71" width="9.53" height="9.53"/><rect class="cls-1" x="133.33" y="85.71" width="9.52" height="9.53"/><rect class="cls-1" x="171.43" y="95.24" width="9.52" height="9.52"/><rect class="cls-1" x="171.43" y="104.76" width="9.52" height="9.53"/><rect class="cls-1" x="152.38" y="95.24" width="9.52" height="9.52"/><rect class="cls-1" x="161.9" y="95.24" width="9.53" height="9.52"/><rect class="cls-1" x="161.9" y="104.76" width="9.53" height="9.53"/><rect class="cls-1" x="152.38" y="104.76" width="9.52" height="9.53"/><rect class="cls-1" x="123.81" y="114.29" width="9.52" height="9.52"/><rect class="cls-1" x="142.85" y="104.76" width="9.53" height="9.53"/><rect class="cls-1" x="142.85" y="95.24" width="9.53" height="9.52"/><rect class="cls-1" x="123.81" y="104.76" width="9.52" height="9.53"/><rect class="cls-1" x="133.33" y="104.76" width="9.52" height="9.53"/><rect class="cls-1" x="123.81" y="95.24" width="9.52" height="9.52"/><rect class="cls-1" x="114.28" y="104.76" width="9.53" height="9.53"/><rect class="cls-1" x="133.33" y="95.24" width="9.52" height="9.52"/><rect class="cls-1" x="114.28" y="161.9" width="9.53" height="9.53"/><rect class="cls-1" x="114.28" y="142.86" width="9.53" height="9.52"/><rect class="cls-1" x="114.28" y="133.33" width="9.53" height="9.53"/><rect class="cls-1" x="114.28" y="114.29" width="9.53" height="9.52"/><rect class="cls-1" x="114.28" y="152.38" width="9.53" height="9.52"/><rect class="cls-1" x="114.28" y="123.81" width="9.53" height="9.52"/><rect class="cls-1" x="95.24" y="161.9" width="9.52" height="9.53"/><rect class="cls-1" x="95.24" y="95.24" width="9.52" height="9.52"/><rect class="cls-1" x="104.76" y="123.81" width="9.52" height="9.52"/><rect class="cls-1" x="104.76" y="104.76" width="9.52" height="9.53"/><rect class="cls-1" x="95.24" y="123.81" width="9.52" height="9.52"/><rect class="cls-1" x="104.76" y="133.33" width="9.52" height="9.53"/><rect class="cls-1" x="104.76" y="114.29" width="9.52" height="9.52"/><rect class="cls-1" x="95.24" y="133.33" width="9.52" height="9.53"/><rect class="cls-1" x="95.24" y="104.76" width="9.52" height="9.53"/><rect class="cls-1" x="85.71" y="104.76" width="9.53" height="9.53"/><rect class="cls-1" x="95.24" y="142.86" width="9.52" height="9.52"/><rect class="cls-1" x="85.71" y="114.29" width="9.53" height="9.52"/><rect class="cls-1" x="95.24" y="114.29" width="9.52" height="9.52"/><rect class="cls-1" x="104.76" y="171.43" width="9.52" height="9.52"/><rect class="cls-1" x="104.76" y="152.38" width="9.52" height="9.52"/><rect class="cls-1" x="95.24" y="171.43" width="9.52" height="9.52"/><rect class="cls-1" x="85.71" y="123.81" width="9.53" height="9.52"/><rect class="cls-1" x="85.71" y="95.24" width="9.53" height="9.52"/><rect class="cls-1" x="104.76" y="142.86" width="9.52" height="9.52"/><rect class="cls-1" x="95.24" y="152.38" width="9.52" height="9.52"/><rect class="cls-1" x="104.76" y="161.9" width="9.52" height="9.53"/><rect class="cls-1" x="66.66" y="66.67" width="9.53" height="9.52"/><rect class="cls-1" x="57.14" y="85.71" width="9.52" height="9.53"/><rect class="cls-1" x="66.66" y="76.19" width="9.53" height="9.52"/><rect class="cls-1" x="76.19" y="114.29" width="9.52" height="9.52"/><rect class="cls-1" x="76.19" y="104.76" width="9.52" height="9.53"/><rect class="cls-1" x="76.19" y="95.24" width="9.52" height="9.52"/><rect class="cls-1" x="66.66" y="95.24" width="9.53" height="9.52"/><rect class="cls-1" x="66.66" y="104.76" width="9.53" height="9.53"/><rect class="cls-1" x="76.19" y="85.71" width="9.52" height="9.53"/><rect class="cls-1" x="66.66" y="114.29" width="9.53" height="9.52"/><rect class="cls-1" x="66.66" y="85.71" width="9.53" height="9.53"/><rect class="cls-1" x="76.19" y="76.19" width="9.52" height="9.52"/><rect class="cls-1" x="85.71" y="85.71" width="9.53" height="9.53"/><rect class="cls-1" x="85.71" y="76.19" width="9.53" height="9.52"/><rect class="cls-1" x="28.57" y="76.19" width="9.52" height="9.52"/><rect class="cls-1" x="57.14" y="76.19" width="9.52" height="9.52"/><rect class="cls-1" x="57.14" y="66.67" width="9.52" height="9.52"/><rect class="cls-1" x="38.09" y="76.19" width="9.53" height="9.52"/><rect class="cls-1" x="47.62" y="66.67" width="9.52" height="9.52"/><rect class="cls-1" x="47.62" y="76.19" width="9.52" height="9.52"/><rect class="cls-1" x="28.57" y="66.67" width="9.52" height="9.52"/><rect class="cls-1" x="28.57" y="57.14" width="9.52" height="9.53"/><rect class="cls-1" x="47.62" y="57.14" width="9.52" height="9.53"/><rect class="cls-1" x="38.09" y="57.14" width="9.53" height="9.53"/><rect class="cls-1" x="38.09" y="47.62" width="9.53" height="9.52"/><rect class="cls-1" x="47.62" y="47.62" width="9.52" height="9.52"/><rect class="cls-1" x="47.62" y="38.1" width="9.52" height="9.52"/><rect class="cls-1" x="38.09" y="66.67" width="9.53" height="9.52"/><rect class="cls-2" x="152.38" y="123.81" width="9.52" height="9.52"/><rect class="cls-2" x="142.85" y="142.86" width="9.53" height="9.52"/><rect class="cls-2" x="161.9" y="123.81" width="9.53" height="9.52"/><rect class="cls-2" x="142.85" y="152.38" width="9.53" height="9.52"/><rect class="cls-2" x="161.9" y="133.33" width="9.53" height="9.53"/><rect class="cls-2" x="142.85" y="123.81" width="9.53" height="9.52"/><rect class="cls-2" x="142.85" y="133.33" width="9.53" height="9.53"/><rect class="cls-2" x="152.38" y="133.33" width="9.52" height="9.53"/><rect class="cls-2" x="152.38" y="142.86" width="9.52" height="9.52"/><rect class="cls-2" x="133.33" y="152.38" width="9.52" height="9.52"/><rect class="cls-2" x="133.33" y="133.33" width="9.52" height="9.53"/><rect class="cls-2" x="133.33" y="142.86" width="9.52" height="9.52"/><rect class="cls-2" x="66.66" y="161.9" width="9.53" height="9.53"/><rect class="cls-2" x="57.14" y="152.38" width="9.52" height="9.52"/><rect class="cls-2" x="76.19" y="152.38" width="9.52" height="9.52"/><rect class="cls-2" x="76.19" y="161.9" width="9.52" height="9.53"/><rect class="cls-2" x="76.19" y="142.86" width="9.52" height="9.52"/><rect class="cls-2" x="66.66" y="142.86" width="9.53" height="9.52"/><rect class="cls-2" x="57.14" y="133.33" width="9.52" height="9.53"/><rect class="cls-2" x="66.66" y="152.38" width="9.53" height="9.52"/><rect class="cls-2" x="66.66" y="133.33" width="9.53" height="9.53"/><rect class="cls-2" x="57.14" y="142.86" width="9.52" height="9.52"/><rect class="cls-2" x="28.57" y="95.24" width="9.52" height="9.52"/><rect class="cls-2" x="47.62" y="142.86" width="9.52" height="9.52"/><rect class="cls-2" x="47.62" y="133.33" width="9.52" height="9.53"/><rect class="cls-2" x="38.09" y="142.86" width="9.53" height="9.52"/><rect class="cls-2" x="38.09" y="95.24" width="9.53" height="9.52"/><rect class="cls-2" x="28.57" y="104.76" width="9.52" height="9.53"/><rect class="cls-2" x="28.57" y="123.81" width="9.52" height="9.52"/><rect class="cls-2" x="28.57" y="133.33" width="9.52" height="9.53"/><rect class="cls-2" x="28.57" y="114.29" width="9.52" height="9.52"/><rect class="cls-2" x="47.62" y="114.29" width="9.52" height="9.52"/><rect class="cls-2" x="47.62" y="152.38" width="9.52" height="9.52"/><rect class="cls-2" x="47.62" y="123.81" width="9.52" height="9.52"/><rect class="cls-2" x="47.62" y="104.76" width="9.52" height="9.53"/><rect class="cls-2" x="38.09" y="133.33" width="9.53" height="9.53"/><rect class="cls-2" x="38.09" y="114.29" width="9.53" height="9.52"/><rect class="cls-2" x="38.09" y="104.76" width="9.53" height="9.53"/><rect class="cls-2" x="38.09" y="123.81" width="9.53" height="9.52"/><rect class="cls-2" x="19.04" y="95.24" width="9.53" height="9.52"/><rect class="cls-2" x="19.04" y="104.76" width="9.53" height="9.53"/><rect class="cls-2" x="152.38" y="47.62" width="9.52" height="9.52"/><rect class="cls-2" x="123.81" y="57.14" width="9.52" height="9.53"/><rect class="cls-2" x="123.81" y="28.57" width="9.52" height="9.53"/><rect class="cls-2" x="123.81" y="38.1" width="9.52" height="9.52"/><rect class="cls-2" x="133.33" y="57.14" width="9.52" height="9.53"/><rect class="cls-2" x="133.33" y="47.62" width="9.52" height="9.52"/><rect class="cls-2" x="133.33" y="38.1" width="9.52" height="9.52"/><rect class="cls-2" x="123.81" y="66.67" width="9.52" height="9.52"/><rect class="cls-2" x="142.85" y="47.62" width="9.53" height="9.52"/><rect class="cls-2" x="142.85" y="38.1" width="9.53" height="9.52"/><rect class="cls-2" x="123.81" y="47.62" width="9.52" height="9.52"/><rect class="cls-2" x="95.24" y="47.62" width="9.52" height="9.52"/><rect class="cls-2" x="104.76" y="57.14" width="9.52" height="9.53"/><rect class="cls-2" x="104.76" y="76.19" width="9.52" height="9.52"/><rect class="cls-2" x="104.76" y="66.67" width="9.52" height="9.52"/><rect class="cls-2" x="104.76" y="28.57" width="9.52" height="9.53"/><rect class="cls-2" x="104.76" y="19.05" width="9.52" height="9.52"/><rect class="cls-2" x="95.24" y="57.14" width="9.52" height="9.53"/><rect class="cls-2" x="114.28" y="47.62" width="9.53" height="9.52"/><rect class="cls-2" x="114.28" y="28.57" width="9.53" height="9.53"/><rect class="cls-2" x="104.76" y="47.62" width="9.52" height="9.52"/><rect class="cls-2" x="104.76" y="38.1" width="9.52" height="9.52"/><rect class="cls-2" x="95.24" y="38.1" width="9.52" height="9.52"/><rect class="cls-2" x="95.24" y="28.57" width="9.52" height="9.53"/><rect class="cls-2" x="95.24" y="19.05" width="9.52" height="9.52"/><rect class="cls-2" x="114.28" y="76.19" width="9.53" height="9.52"/><rect class="cls-2" x="114.28" y="66.67" width="9.53" height="9.52"/><rect class="cls-2" x="114.28" y="57.14" width="9.53" height="9.53"/><rect class="cls-2" x="114.28" y="38.1" width="9.53" height="9.52"/><rect class="cls-2" x="66.66" y="28.57" width="9.53" height="9.53"/><rect class="cls-2" x="76.19" y="38.1" width="9.52" height="9.52"/><rect class="cls-2" x="66.66" y="38.1" width="9.53" height="9.52"/><rect class="cls-2" x="85.71" y="47.62" width="9.53" height="9.52"/><rect class="cls-2" x="85.71" y="38.1" width="9.53" height="9.52"/><rect class="cls-2" x="85.71" y="28.57" width="9.53" height="9.53"/><rect class="cls-2" x="85.71" y="19.05" width="9.53" height="9.52"/><rect class="cls-2" x="76.19" y="47.62" width="9.52" height="9.52"/><rect class="cls-2" x="85.71" y="57.14" width="9.53" height="9.53"/><rect class="cls-2" x="66.66" y="47.62" width="9.53" height="9.52"/><rect class="cls-2" x="76.19" y="28.57" width="9.52" height="9.53"/><rect x="180.95" y="114.29" width="9.52" height="9.52"/><rect x="180.95" y="104.76" width="9.52" height="9.53"/><rect x="180.95" y="95.24" width="9.52" height="9.52"/><rect x="180.95" y="85.71" width="9.52" height="9.53"/><rect x="180.95" y="76.19" width="9.52" height="9.52"/><rect x="171.43" y="142.86" width="9.52" height="9.52"/><rect x="171.43" y="133.33" width="9.52" height="9.53"/><rect x="171.43" y="123.81" width="9.52" height="9.52"/><rect x="171.43" y="114.29" width="9.52" height="9.52"/><rect x="171.43" y="76.19" width="9.52" height="9.52"/><rect x="171.43" y="66.67" width="9.52" height="9.52"/><rect x="171.43" y="57.14" width="9.52" height="9.53"/><rect x="171.43" y="47.62" width="9.52" height="9.52"/><rect x="161.9" y="152.38" width="9.53" height="9.52"/><rect x="161.9" y="142.86" width="9.53" height="9.52"/><rect x="161.9" y="114.29" width="9.53" height="9.52"/><rect x="161.9" y="57.14" width="9.53" height="9.53"/><rect x="161.9" y="47.62" width="9.53" height="9.52"/><rect x="161.9" y="38.1" width="9.53" height="9.52"/><rect x="152.38" y="161.9" width="9.52" height="9.53"/><rect x="152.38" y="152.38" width="9.52" height="9.52"/><rect x="152.38" y="114.29" width="9.52" height="9.52"/><rect x="152.38" y="57.14" width="9.52" height="9.53"/><rect x="152.38" y="38.1" width="9.52" height="9.52"/><rect x="152.38" y="28.57" width="9.52" height="9.53"/><rect x="142.85" y="161.9" width="9.53" height="9.53"/><rect x="142.85" y="114.29" width="9.53" height="9.52"/><rect x="142.85" y="66.67" width="9.53" height="9.52"/><rect x="142.85" y="57.14" width="9.53" height="9.53"/><rect x="142.85" y="28.57" width="9.53" height="9.53"/><rect x="133.33" y="171.43" width="9.52" height="9.52"/><rect x="133.33" y="161.9" width="9.52" height="9.53"/><rect x="133.33" y="123.81" width="9.52" height="9.52"/><rect x="133.33" y="114.29" width="9.52" height="9.52"/><rect x="133.33" y="76.19" width="9.52" height="9.52"/><rect x="133.33" y="66.67" width="9.52" height="9.52"/><rect x="133.33" y="28.57" width="9.52" height="9.53"/><rect x="133.33" y="19.05" width="9.52" height="9.52"/><rect x="123.81" y="171.43" width="9.52" height="9.52"/><rect x="123.81" y="161.9" width="9.52" height="9.53"/><rect x="123.81" y="152.38" width="9.52" height="9.52"/><rect x="123.81" y="142.86" width="9.52" height="9.52"/><rect x="123.81" y="133.33" width="9.52" height="9.53"/><rect x="123.81" y="123.81" width="9.52" height="9.52"/><rect x="123.81" y="85.71" width="9.52" height="9.53"/><rect x="123.81" y="76.19" width="9.52" height="9.52"/><rect x="123.81" y="19.05" width="9.52" height="9.52"/><rect x="114.28" y="180.95" width="9.53" height="9.53"/><rect x="114.28" y="171.43" width="9.53" height="9.52"/><rect x="114.28" y="95.24" width="9.53" height="9.52"/><rect x="114.28" y="85.71" width="9.53" height="9.53"/><rect x="114.28" y="19.05" width="9.53" height="9.52"/><rect x="114.28" y="9.52" width="9.53" height="9.53"/><rect x="104.76" y="180.95" width="9.52" height="9.53"/><rect x="104.76" y="95.24" width="9.52" height="9.52"/><rect x="104.76" y="85.71" width="9.52" height="9.53"/><rect x="104.76" y="9.52" width="9.52" height="9.53"/><rect x="95.24" y="180.95" width="9.52" height="9.53"/><rect x="95.24" y="85.71" width="9.52" height="9.53"/><rect x="95.24" y="76.19" width="9.52" height="9.52"/><rect x="95.24" y="66.67" width="9.52" height="9.52"/><rect x="95.24" y="9.52" width="9.52" height="9.53"/><rect x="85.71" y="180.95" width="9.53" height="9.53"/><rect x="85.71" y="171.43" width="9.53" height="9.52"/><rect x="85.71" y="161.9" width="9.53" height="9.53"/><rect x="85.71" y="152.38" width="9.53" height="9.52"/><rect x="85.71" y="142.86" width="9.53" height="9.52"/><rect x="85.71" y="133.33" width="9.53" height="9.53"/><rect x="85.71" y="66.67" width="9.53" height="9.52"/><rect x="85.71" y="9.52" width="9.53" height="9.53"/><rect x="76.19" y="180.95" width="9.52" height="9.53"/><rect x="76.19" y="171.43" width="9.52" height="9.52"/><rect x="76.19" y="133.33" width="9.52" height="9.53"/><rect x="76.19" y="123.81" width="9.52" height="9.52"/><rect x="76.19" y="66.67" width="9.52" height="9.52"/><rect x="76.19" y="57.14" width="9.52" height="9.53"/><rect x="76.19" y="19.05" width="9.52" height="9.52"/><rect x="76.19" y="9.52" width="9.52" height="9.53"/><rect x="66.66" y="171.43" width="9.53" height="9.52"/><rect x="66.66" y="123.81" width="9.53" height="9.52"/><rect x="66.66" y="57.14" width="9.53" height="9.53"/><rect x="66.66" y="19.05" width="9.53" height="9.52"/><rect x="57.14" y="171.43" width="9.52" height="9.52"/><rect x="57.14" y="161.9" width="9.52" height="9.53"/><rect x="57.14" y="123.81" width="9.52" height="9.52"/><rect x="57.14" y="114.29" width="9.52" height="9.52"/><rect x="57.14" y="104.76" width="9.52" height="9.53"/><rect x="57.14" y="95.24" width="9.52" height="9.52"/><rect x="57.14" y="57.14" width="9.52" height="9.53"/><rect x="57.14" y="47.62" width="9.52" height="9.52"/><rect x="57.14" y="38.1" width="9.52" height="9.52"/><rect x="57.14" y="28.57" width="9.52" height="9.53"/><rect x="57.14" y="19.05" width="9.52" height="9.52"/><rect x="47.62" y="161.9" width="9.52" height="9.53"/><rect x="47.62" y="95.24" width="9.52" height="9.52"/><rect x="47.62" y="85.71" width="9.52" height="9.53"/><rect x="47.62" y="28.57" width="9.52" height="9.53"/><rect x="38.09" y="161.9" width="9.53" height="9.53"/><rect x="38.09" y="152.38" width="9.53" height="9.52"/><rect x="38.09" y="85.71" width="9.53" height="9.53"/><rect x="38.09" y="38.1" width="9.53" height="9.52"/><rect x="38.09" y="28.57" width="9.53" height="9.53"/><rect x="28.57" y="152.38" width="9.52" height="9.52"/><rect x="28.57" y="142.86" width="9.52" height="9.52"/><rect x="28.57" y="85.71" width="9.52" height="9.53"/><rect x="28.57" y="47.62" width="9.52" height="9.52"/><rect x="28.57" y="38.1" width="9.52" height="9.52"/><rect x="19.04" y="142.86" width="9.53" height="9.52"/><rect x="19.04" y="133.33" width="9.53" height="9.53"/><rect x="19.04" y="123.81" width="9.53" height="9.52"/><rect x="19.04" y="114.29" width="9.53" height="9.52"/><rect x="19.04" y="85.71" width="9.53" height="9.53"/><rect x="19.04" y="76.19" width="9.53" height="9.52"/><rect x="19.04" y="66.67" width="9.53" height="9.52"/><rect x="19.04" y="57.14" width="9.53" height="9.53"/><rect x="19.04" y="47.62" width="9.53" height="9.52"/><rect x="9.52" y="114.29" width="9.52" height="9.52"/><rect x="9.52" y="104.76" width="9.52" height="9.53"/><rect x="9.52" y="95.24" width="9.52" height="9.52"/><rect x="9.52" y="85.71" width="9.52" height="9.53"/><rect x="9.52" y="76.19" width="9.52" height="9.52"/></svg>